<svg id="visual" viewBox="0 0 450 900" width="450" height="900" xmlns="http://www.w3.org/2000/svg" xmlns:xlink="http://www.w3.org/1999/xlink" version="1.1"><path d="M0 692L15 691.7C30 691.3 60 690.7 90 691.5C120 692.3 150 694.7 180 685.3C210 676 240 655 270 650.8C300 646.7 330 659.3 360 661.8C390 664.3 420 656.7 435 652.8L450 649L450 901L435 901C420 901 390 901 360 901C330 901 300 901 270 901C240 901 210 901 180 901C150 901 120 901 90 901C60 901 30 901 15 901L0 901Z" fill="#fa7268"></path><path d="M0 725L15 717C30 709 60 693 90 684C120 675 150 673 180 683.5C210 694 240 717 270 721.3C300 725.7 330 711.3 360 714.8C390 718.3 420 739.7 435 750.3L450 761L450 901L435 901C420 901 390 901 360 901C330 901 300 901 270 901C240 901 210 901 180 901C150 901 120 901 90 901C60 901 30 901 15 901L0 901Z" fill="#eb5967"></path><path d="M0 771L15 772.5C30 774 60 777 90 768.7C120 760.3 150 740.7 180 738.5C210 736.3 240 751.7 270 753C300 754.3 330 741.7 360 746.7C390 751.7 420 774.3 435 785.7L450 797L450 901L435 901C420 901 390 901 360 901C330 901 300 901 270 901C240 901 210 901 180 901C150 901 120 901 90 901C60 901 30 901 15 901L0 901Z" fill="#da3f67"></path><path d="M0 815L15 813C30 811 60 807 90 808.5C120 810 150 817 180 822.3C210 827.7 240 831.3 270 832.7C300 834 330 833 360 826C390 819 420 806 435 799.5L450 793L450 901L435 901C420 901 390 901 360 901C330 901 300 901 270 901C240 901 210 901 180 901C150 901 120 901 90 901C60 901 30 901 15 901L0 901Z" fill="#c62368"></path></svg>