<svg id="visual" viewBox="0 0 450 900" width="450" height="900" xmlns="http://www.w3.org/2000/svg" xmlns:xlink="http://www.w3.org/1999/xlink" version="1.1"><rect x="0" y="0" width="450" height="900" fill="#001220"></rect><path d="M0 452L10.7 455.3C21.3 458.7 42.7 465.3 64.2 465.7C85.7 466 107.3 460 128.8 454.5C150.3 449 171.7 444 193 446.3C214.3 448.7 235.7 458.3 257 461.3C278.3 464.3 299.7 460.7 321.2 459.7C342.7 458.7 364.3 460.3 385.8 464.7C407.3 469 428.7 476 439.3 479.5L450 483L450 901L439.3 901C428.7 901 407.3 901 385.8 901C364.3 901 342.7 901 321.2 901C299.7 901 278.3 901 257 901C235.7 901 214.3 901 193 901C171.7 901 150.3 901 128.8 901C107.3 901 85.7 901 64.2 901C42.7 901 21.3 901 10.7 901L0 901Z" fill="#fa7268"></path><path d="M0 553L10.7 552.2C21.3 551.3 42.7 549.7 64.2 548.5C85.7 547.3 107.3 546.7 128.8 545C150.3 543.3 171.7 540.7 193 542.7C214.3 544.7 235.7 551.3 257 548.8C278.3 546.3 299.7 534.7 321.2 535.3C342.7 536 364.3 549 385.8 554.7C407.3 560.3 428.7 558.7 439.3 557.8L450 557L450 901L439.3 901C428.7 901 407.3 901 385.8 901C364.3 901 342.7 901 321.2 901C299.7 901 278.3 901 257 901C235.7 901 214.3 901 193 901C171.7 901 150.3 901 128.8 901C107.3 901 85.7 901 64.2 901C42.7 901 21.3 901 10.7 901L0 901Z" fill="#ef5f67"></path><path d="M0 608L10.7 613.3C21.3 618.7 42.7 629.3 64.2 631.3C85.7 633.3 107.3 626.7 128.8 629.3C150.3 632 171.7 644 193 649.2C214.3 654.3 235.7 652.7 257 647C278.3 641.3 299.7 631.7 321.2 626.2C342.7 620.7 364.3 619.3 385.8 624.8C407.3 630.3 428.7 642.7 439.3 648.8L450 655L450 901L439.3 901C428.7 901 407.3 901 385.8 901C364.3 901 342.7 901 321.2 901C299.7 901 278.3 901 257 901C235.7 901 214.3 901 193 901C171.7 901 150.3 901 128.8 901C107.3 901 85.7 901 64.2 901C42.7 901 21.3 901 10.7 901L0 901Z" fill="#e34c67"></path><path d="M0 700L10.7 705C21.3 710 42.7 720 64.2 721.7C85.7 723.3 107.3 716.7 128.8 718C150.3 719.3 171.7 728.7 193 729.7C214.3 730.7 235.7 723.3 257 717.5C278.3 711.7 299.7 707.3 321.2 703.3C342.7 699.3 364.3 695.7 385.8 695.2C407.3 694.7 428.7 697.3 439.3 698.7L450 700L450 901L439.3 901C428.7 901 407.3 901 385.8 901C364.3 901 342.7 901 321.2 901C299.7 901 278.3 901 257 901C235.7 901 214.3 901 193 901C171.7 901 150.3 901 128.8 901C107.3 901 85.7 901 64.2 901C42.7 901 21.3 901 10.7 901L0 901Z" fill="#d53867"></path><path d="M0 805L10.7 802.5C21.3 800 42.7 795 64.2 796C85.7 797 107.3 804 128.8 802.5C150.3 801 171.7 791 193 785.2C214.3 779.3 235.7 777.7 257 783C278.3 788.3 299.7 800.7 321.2 806.8C342.7 813 364.3 813 385.8 810.7C407.3 808.3 428.7 803.7 439.3 801.3L450 799L450 901L439.3 901C428.7 901 407.3 901 385.8 901C364.3 901 342.7 901 321.2 901C299.7 901 278.3 901 257 901C235.7 901 214.3 901 193 901C171.7 901 150.3 901 128.8 901C107.3 901 85.7 901 64.2 901C42.7 901 21.3 901 10.7 901L0 901Z" fill="#c62368"></path></svg>