<svg id="visual" viewBox="0 0 900 300" width="900" height="300" xmlns="http://www.w3.org/2000/svg" xmlns:xlink="http://www.w3.org/1999/xlink" version="1.1"><rect x="0" y="0" width="900" height="300" fill="#1a1a24"></rect><path d="M0 164L16.7 154.5C33.3 145 66.7 126 100 120.8C133.3 115.7 166.7 124.3 200 124.5C233.3 124.7 266.7 116.3 300 121C333.3 125.7 366.7 143.3 400 151.3C433.3 159.3 466.7 157.7 500 151.5C533.3 145.3 566.7 134.7 600 133.2C633.3 131.7 666.7 139.3 700 138.5C733.3 137.7 766.7 128.3 800 124.8C833.3 121.3 866.7 123.7 883.3 124.8L900 126L900 301L883.3 301C866.7 301 833.3 301 800 301C766.7 301 733.3 301 700 301C666.7 301 633.3 301 600 301C566.7 301 533.3 301 500 301C466.7 301 433.3 301 400 301C366.7 301 333.3 301 300 301C266.7 301 233.3 301 200 301C166.7 301 133.3 301 100 301C66.7 301 33.3 301 16.7 301L0 301Z" fill="#1e324b"></path><path d="M0 144L16.7 150.3C33.3 156.7 66.7 169.3 100 169.2C133.3 169 166.7 156 200 153.3C233.3 150.7 266.7 158.3 300 161.5C333.3 164.7 366.7 163.3 400 159C433.3 154.7 466.7 147.3 500 144.8C533.3 142.3 566.7 144.7 600 149.5C633.3 154.3 666.7 161.7 700 169.2C733.3 176.7 766.7 184.3 800 179.5C833.3 174.7 866.7 157.3 883.3 148.7L900 140L900 301L883.3 301C866.7 301 833.3 301 800 301C766.7 301 733.3 301 700 301C666.7 301 633.3 301 600 301C566.7 301 533.3 301 500 301C466.7 301 433.3 301 400 301C366.7 301 333.3 301 300 301C266.7 301 233.3 301 200 301C166.7 301 133.3 301 100 301C66.7 301 33.3 301 16.7 301L0 301Z" fill="#3d4173"></path><path d="M0 203L16.7 200C33.3 197 66.7 191 100 188.7C133.3 186.3 166.7 187.7 200 186.8C233.3 186 266.7 183 300 184.7C333.3 186.3 366.7 192.7 400 192.5C433.3 192.3 466.7 185.7 500 182C533.3 178.3 566.7 177.7 600 178.3C633.3 179 666.7 181 700 187C733.3 193 766.7 203 800 203.2C833.3 203.3 866.7 193.7 883.3 188.8L900 184L900 301L883.3 301C866.7 301 833.3 301 800 301C766.7 301 733.3 301 700 301C666.7 301 633.3 301 600 301C566.7 301 533.3 301 500 301C466.7 301 433.3 301 400 301C366.7 301 333.3 301 300 301C266.7 301 233.3 301 200 301C166.7 301 133.3 301 100 301C66.7 301 33.3 301 16.7 301L0 301Z" fill="#744991"></path><path d="M0 241L16.7 239.2C33.3 237.3 66.7 233.7 100 233.7C133.3 233.7 166.7 237.3 200 239.3C233.3 241.3 266.7 241.7 300 239.3C333.3 237 366.7 232 400 228.3C433.3 224.7 466.7 222.3 500 224.7C533.3 227 566.7 234 600 235.8C633.3 237.7 666.7 234.3 700 234.2C733.3 234 766.7 237 800 235.5C833.3 234 866.7 228 883.3 225L900 222L900 301L883.3 301C866.7 301 833.3 301 800 301C766.7 301 733.3 301 700 301C666.7 301 633.3 301 600 301C566.7 301 533.3 301 500 301C466.7 301 433.3 301 400 301C366.7 301 333.3 301 300 301C266.7 301 233.3 301 200 301C166.7 301 133.3 301 100 301C66.7 301 33.3 301 16.7 301L0 301Z" fill="#b6469d"></path><path d="M0 250L16.7 252.8C33.3 255.7 66.7 261.3 100 260.3C133.3 259.3 166.7 251.7 200 251.3C233.3 251 266.7 258 300 261.3C333.3 264.7 366.7 264.3 400 262.7C433.3 261 466.7 258 500 254.3C533.3 250.7 566.7 246.3 600 244.3C633.3 242.3 666.7 242.7 700 246C733.3 249.3 766.7 255.7 800 259C833.3 262.3 866.7 262.7 883.3 262.8L900 263L900 301L883.3 301C866.7 301 833.3 301 800 301C766.7 301 733.3 301 700 301C666.7 301 633.3 301 600 301C566.7 301 533.3 301 500 301C466.7 301 433.3 301 400 301C366.7 301 333.3 301 300 301C266.7 301 233.3 301 200 301C166.7 301 133.3 301 100 301C66.7 301 33.3 301 16.7 301L0 301Z" fill="#f73d93"></path></svg>